<svg width="151" height="132" viewBox="0 0 151 132" fill="none" xmlns="http://www.w3.org/2000/svg">
<g clip-path="url(#clip0_100_5717)">
<path d="M149.305 129.933C149.043 130.299 148.778 130.663 148.516 131.024C147.763 131.543 146.869 131.82 145.954 131.818H5.04536C4.17146 131.819 3.31608 131.566 2.5828 131.091C2.33944 130.77 2.09883 130.446 1.85547 130.123L2.09883 129.989L73.4331 90.4492C74.066 90.0991 74.7773 89.915 75.5006 89.9141C76.2239 89.9131 76.9357 90.0954 77.5695 90.4438L149.064 129.799L149.305 129.933Z" fill="#6C63FF"/>
<path d="M145.955 46.7917L84.1315 11.0884C81.5312 9.58672 78.5817 8.79543 75.5789 8.79395C72.5762 8.79247 69.6259 9.58085 67.0241 11.08L5.04545 46.7917C3.84045 46.7934 2.68529 47.2729 1.83322 48.1249C0.981149 48.977 0.501705 50.1322 0.5 51.3372V127.273C0.501404 128.478 0.98075 129.633 1.83288 130.486C2.68502 131.338 3.84036 131.817 5.04545 131.818H145.955C147.159 131.816 148.314 131.337 149.166 130.485C150.018 129.633 150.498 128.478 150.5 127.273V51.3372C150.498 50.1322 150.019 48.977 149.167 48.1249C148.315 47.2728 147.16 46.7934 145.955 46.7917ZM149.965 127.273C149.963 128.336 149.539 129.355 148.788 130.106C148.036 130.858 147.017 131.281 145.955 131.284H5.04545C3.98234 131.282 2.96332 130.859 2.21158 130.107C1.45984 129.355 1.03667 128.336 1.03476 127.273V51.3372C1.03605 50.2739 1.45902 49.2545 2.21089 48.5026C2.96276 47.7507 3.98215 47.3278 5.04545 47.3265L67.0241 11.6147C69.6259 10.1156 72.5762 9.32723 75.5789 9.32871C78.5817 9.33019 81.5312 10.1215 84.1315 11.6232L145.955 47.3265C147.018 47.3278 148.037 47.7507 148.789 48.5026C149.541 49.2545 149.964 50.2739 149.965 51.3372V127.273Z" fill="#3F3D56"/>
<path d="M75.5802 89.7542C75.1146 89.7557 74.652 89.6781 74.2123 89.5246L74.1314 89.496L74.1151 89.3163C74.0647 89.3411 74.0138 89.3648 73.9629 89.3873L73.9091 89.4109L73.8553 89.3872C73.7426 89.3377 73.6307 89.2817 73.5227 89.2208L24.2969 61.5596V5.08031C24.2983 3.76887 24.82 2.51155 25.7473 1.58422C26.6746 0.656884 27.932 0.135261 29.2434 0.133789H121.757C123.068 0.135261 124.326 0.656884 125.253 1.58422C126.18 2.51155 126.702 3.76887 126.703 5.08031V61.6318L126.635 61.6702L77.6378 89.2209C77.0088 89.5716 76.3004 89.7552 75.5802 89.7542Z" fill="white"/>
<path d="M75.5801 89.8877C75.0993 89.8894 74.6218 89.8092 74.1679 89.6507L74.006 89.5936L73.999 89.5172L73.909 89.5568L73.8014 89.5095C73.6847 89.4582 73.5689 89.4002 73.457 89.3372L24.1631 61.6378V5.08021C24.1646 3.73333 24.7003 2.44204 25.6527 1.48965C26.6051 0.537251 27.8964 0.00152436 29.2433 0H121.757C123.104 0.00153001 124.395 0.537256 125.347 1.48965C126.3 2.44204 126.835 3.73333 126.837 5.08021V61.7099L77.7032 89.3373C77.0542 89.6993 76.3232 89.8888 75.5801 89.8877ZM74.507 89.1988C75.4901 89.4811 76.5448 89.3633 77.4414 88.8711L126.302 61.3971V5.08021C126.301 3.8751 125.821 2.71973 124.969 1.86759C124.117 1.01545 122.962 0.536116 121.757 0.534759H29.2433C28.0382 0.53611 26.8828 1.01544 26.0307 1.86759C25.1785 2.71973 24.6992 3.8751 24.6978 5.08021V61.3247L27.9036 63.1251L73.7193 88.8712C73.7816 88.9063 73.8449 88.9394 73.9091 88.9703C73.9733 88.9394 74.0365 88.9064 74.0987 88.8714L74.4588 88.6685L74.507 89.1988Z" fill="#3F3D56"/>
<path d="M149.316 48.7647L129.912 59.6738L126.57 61.5535L77.5723 89.1043C76.9634 89.4438 76.2775 89.6215 75.5803 89.6203C75.1298 89.6216 74.6823 89.5466 74.2568 89.3984C74.1385 89.3605 74.0224 89.3159 73.9092 89.2647C73.7996 89.2165 73.6927 89.1631 73.5884 89.1043L27.7728 63.3583L24.4306 61.4813L1.72474 48.7219C1.663 48.6865 1.61771 48.6282 1.5987 48.5596C1.57968 48.491 1.58847 48.4177 1.62317 48.3556C1.65796 48.294 1.71579 48.2486 1.78396 48.2296C1.85213 48.2105 1.92506 48.2193 1.98677 48.254L24.4306 60.8663L27.7728 62.7433L73.8504 88.6363C74.0033 88.7221 74.1623 88.7963 74.3263 88.8583C74.3959 88.885 74.4681 88.9091 74.5403 88.9305C74.9979 89.0709 75.4793 89.1173 75.9554 89.0667C76.4314 89.0162 76.8923 88.8698 77.3103 88.6363L126.57 60.9412L129.912 59.0615L149.054 48.2994C149.084 48.2822 149.118 48.2712 149.153 48.267C149.187 48.2628 149.223 48.2655 149.256 48.2749C149.29 48.2844 149.322 48.3004 149.349 48.322C149.377 48.3436 149.4 48.3705 149.417 48.401C149.434 48.4316 149.445 48.4652 149.45 48.5C149.454 48.5348 149.451 48.5701 149.442 48.6039C149.432 48.6377 149.416 48.6693 149.395 48.6968C149.373 48.7244 149.346 48.7475 149.316 48.7647Z" fill="#3F3D56"/>
<path d="M44.3703 17.6472H36.8837C36.3164 17.6472 35.7723 17.4219 35.3711 17.0207C34.97 16.6196 34.7446 16.0755 34.7446 15.5082C34.7446 14.9409 34.97 14.3968 35.3711 13.9956C35.7723 13.5945 36.3164 13.3691 36.8837 13.3691H44.3703C44.9376 13.3691 45.4817 13.5945 45.8828 13.9956C46.284 14.3968 46.5093 14.9409 46.5093 15.5082C46.5093 16.0755 46.284 16.6196 45.8828 17.0207C45.4817 17.4219 44.9376 17.6472 44.3703 17.6472Z" fill="#6C63FF"/>
<path d="M53.1938 24.866H36.8837C36.3164 24.866 35.7723 24.6406 35.3711 24.2395C34.97 23.8383 34.7446 23.2942 34.7446 22.7269C34.7446 22.1596 34.97 21.6155 35.3711 21.2144C35.7723 20.8133 36.3164 20.5879 36.8837 20.5879H53.1938C53.7611 20.5879 54.3052 20.8133 54.7063 21.2144C55.1075 21.6155 55.3329 22.1596 55.3329 22.7269C55.3329 23.2942 55.1075 23.8383 54.7063 24.2395C54.3052 24.6406 53.7611 24.866 53.1938 24.866Z" fill="#E6E6E6"/>
<path d="M98.7619 44.1179H52.5052C51.9379 44.1179 51.3939 43.8926 50.9927 43.4914C50.5916 43.0903 50.3662 42.5462 50.3662 41.9789C50.3662 41.4116 50.5916 40.8675 50.9927 40.4664C51.3939 40.0652 51.9379 39.8398 52.5052 39.8398H98.7619C99.3292 39.8398 99.8733 40.0652 100.274 40.4664C100.676 40.8675 100.901 41.4116 100.901 41.9789C100.901 42.5462 100.676 43.0903 100.274 43.4914C99.8733 43.8926 99.3292 44.1179 98.7619 44.1179Z" fill="#6C63FF"/>
<path d="M103.04 52.406H47.9598C47.3925 52.406 46.8485 52.1806 46.4473 51.7795C46.0462 51.3783 45.8208 50.8343 45.8208 50.267C45.8208 49.6997 46.0462 49.1556 46.4473 48.7544C46.8485 48.3533 47.3925 48.1279 47.9598 48.1279H103.04C103.607 48.1279 104.151 48.3533 104.553 48.7544C104.954 49.1556 105.179 49.6997 105.179 50.267C105.179 50.8343 104.954 51.3783 104.553 51.7795C104.151 52.1806 103.607 52.406 103.04 52.406Z" fill="#E6E6E6"/>
<path d="M103.04 60.4275H47.9598C47.3925 60.4275 46.8485 60.2021 46.4473 59.801C46.0462 59.3998 45.8208 58.8558 45.8208 58.2885C45.8208 57.7211 46.0462 57.1771 46.4473 56.7759C46.8485 56.3748 47.3925 56.1494 47.9598 56.1494H103.04C103.607 56.1494 104.151 56.3748 104.553 56.7759C104.954 57.1771 105.179 57.7211 105.179 58.2885C105.179 58.8558 104.954 59.3998 104.553 59.801C104.151 60.2021 103.607 60.4275 103.04 60.4275Z" fill="#E6E6E6"/>
</g>
<defs>
<clipPath id="clip0_100_5717">
<rect width="150" height="131.818" fill="white" transform="translate(0.5)"/>
</clipPath>
</defs>
</svg>
