<svg width="151" height="175" viewBox="0 0 151 175" fill="none" xmlns="http://www.w3.org/2000/svg">
<g clip-path="url(#clip0_100_5940)">
<path d="M145.652 64.4846H5.21964C3.96836 64.4832 2.76874 63.9855 1.88394 63.1007C0.999153 62.2159 0.501445 61.0162 0.5 59.765V4.71964C0.501445 3.46836 0.999153 2.26874 1.88394 1.38394C2.76874 0.499153 3.96836 0.00144483 5.21964 0H145.652C146.903 0.00144483 148.103 0.499153 148.988 1.38394C149.872 2.26874 150.37 3.46836 150.372 4.71964V59.765C150.37 61.0163 149.872 62.2159 148.988 63.1007C148.103 63.9854 146.903 64.4832 145.652 64.4846Z" fill="#F2F2F2"/>
<path d="M112.9 61.4747H27.511C21.1479 61.4675 15.0475 58.9366 10.5482 54.4372C6.04881 49.9379 3.51792 43.8375 3.51074 37.4744V27.0131C3.51791 20.65 6.0488 14.5496 10.5482 10.0502C15.0475 5.55084 21.1479 3.01991 27.511 3.0127H123.361C129.724 3.01991 135.825 5.55084 140.324 10.0502C144.823 14.5496 147.354 20.65 147.361 27.0131C147.351 36.1497 143.717 44.9091 137.256 51.3697C130.796 57.8302 122.036 61.4643 112.9 61.4747Z" fill="white"/>
<path d="M90.8731 18.7703H34.4301C34.1073 18.7703 33.7977 18.6421 33.5694 18.4138C33.3411 18.1856 33.2129 17.876 33.2129 17.5531C33.2129 17.2303 33.3411 16.9207 33.5694 16.6924C33.7977 16.4642 34.1073 16.3359 34.4301 16.3359H90.8731C91.1959 16.3359 91.5056 16.4642 91.7338 16.6924C91.9621 16.9207 92.0903 17.2303 92.0903 17.5531C92.0903 17.876 91.9621 18.1856 91.7338 18.4138C91.5056 18.6421 91.1959 18.7703 90.8731 18.7703Z" fill="#E6E6E6"/>
<path d="M119.446 31.7567H34.4301C34.1073 31.7567 33.7977 31.6284 33.5694 31.4001C33.3411 31.1719 33.2129 30.8623 33.2129 30.5395C33.2129 30.2166 33.3411 29.907 33.5694 29.6788C33.7977 29.4505 34.1073 29.3223 34.4301 29.3223H119.446C119.768 29.3223 120.078 29.4505 120.306 29.6788C120.535 29.907 120.663 30.2166 120.663 30.5395C120.663 30.8623 120.535 31.1719 120.306 31.4001C120.078 31.6284 119.768 31.7567 119.446 31.7567Z" fill="#E6E6E6"/>
<path d="M119.446 44.744H34.4301C34.1073 44.744 33.7977 44.6157 33.5694 44.3874C33.3411 44.1592 33.2129 43.8496 33.2129 43.5268C33.2129 43.2039 33.3411 42.8943 33.5694 42.6661C33.7977 42.4378 34.1073 42.3096 34.4301 42.3096H119.446C119.768 42.3096 120.078 42.4378 120.306 42.6661C120.535 42.8943 120.663 43.2039 120.663 43.5268C120.663 43.8496 120.535 44.1592 120.306 44.3874C120.078 44.6157 119.768 44.744 119.446 44.744Z" fill="#E6E6E6"/>
<path d="M119.446 44.744H34.4301C34.1073 44.744 33.7977 44.6157 33.5694 44.3874C33.3411 44.1592 33.2129 43.8496 33.2129 43.5268C33.2129 43.2039 33.3411 42.8943 33.5694 42.6661C33.7977 42.4378 34.1073 42.3096 34.4301 42.3096H119.446C119.768 42.3096 120.078 42.4378 120.306 42.6661C120.535 42.8943 120.663 43.2039 120.663 43.5268C120.663 43.8496 120.535 44.1592 120.306 44.3874C120.078 44.6157 119.768 44.744 119.446 44.744Z" fill="#E6E6E6"/>
<path d="M84.9169 33.2478C84.9304 33.6145 85.0242 33.9737 85.1916 34.3002C85.3589 34.6267 85.5959 34.9125 85.8856 35.1375C86.1754 35.3625 86.511 35.5212 86.8688 35.6025C87.2266 35.6838 87.5978 35.6857 87.9564 35.608L92.5983 43.223L94.5739 39.0308L89.863 32.4421C89.6925 31.8484 89.3102 31.3378 88.7884 31.0072C88.2666 30.6765 87.6417 30.5488 87.0321 30.6481C86.4224 30.7474 85.8703 31.0669 85.4805 31.546C85.0907 32.0252 84.8901 32.6307 84.9169 33.2478Z" fill="#FFB6B6"/>
<path d="M119.751 55.0719L103.755 46.3949L98.7087 41.6609C98.7087 41.6609 96.5152 41.0736 97.3226 40.3604C98.1299 39.6472 95.8292 38.9593 95.8292 38.9593L93.1205 36.418L89.2715 39.1414L90.3854 40.8681C90.3854 40.8681 90.3088 43.7267 91.8747 43.1768C93.4407 42.6268 93.0494 44.9976 93.0494 44.9976L102.396 59.4866L119.751 55.0719Z" fill="#3F3D56"/>
<path d="M72.5304 46.8968C81.16 46.8968 88.1556 39.9012 88.1556 31.2717C88.1556 22.6421 81.16 15.6465 72.5304 15.6465C63.9009 15.6465 56.9053 22.6421 56.9053 31.2717C56.9053 39.9012 63.9009 46.8968 72.5304 46.8968Z" fill="#6C63FF"/>
<path d="M119.801 168.882H116.552L115.006 156.351H119.801V168.882Z" fill="#FFB6B6"/>
<path d="M121.516 174.512H119.186L118.77 172.312L117.705 174.512H111.525C111.229 174.512 110.941 174.417 110.702 174.242C110.464 174.066 110.287 173.819 110.199 173.536C110.111 173.253 110.116 172.95 110.212 172.67C110.309 172.39 110.492 172.148 110.736 171.98L115.671 168.571V166.348L120.861 166.657L121.516 174.512Z" fill="#2F2E41"/>
<path d="M93.8165 168.882H90.5675L89.0215 156.351H93.8165V168.882Z" fill="#FFB6B6"/>
<path d="M95.5314 174.512H93.2015L92.7856 172.312L91.7205 174.512H85.541C85.2448 174.512 84.9564 174.417 84.7178 174.242C84.4792 174.066 84.3029 173.819 84.2148 173.536C84.1266 173.253 84.1312 172.95 84.2278 172.67C84.3244 172.39 84.508 172.148 84.7517 171.98L89.6864 168.571V166.348L94.8769 166.657L95.5314 174.512Z" fill="#2F2E41"/>
<path d="M116.354 74.1084H99.9556V92.7769H116.354V74.1084Z" fill="#FFB6B6"/>
<path d="M100.334 83.3164L97.5591 86.596L92.7659 96.6871L80.6881 125.424L78.1338 131.501L80.1966 142.245C80.1966 142.245 80.5304 149.814 80.5304 151.053C80.5304 153.576 82.6404 154.974 82.6404 154.974L84.1884 163.036L99.1989 162.405C99.1989 162.405 98.6752 153.518 95.5313 151.276C92.3874 149.035 90.9423 137.351 90.9423 137.351L89.234 132.168L105.884 112.431L105.992 119.33L106.044 122.669C106.044 122.669 103.605 144.389 106.448 148.604C109.29 152.819 106.506 152.323 106.506 152.323L106.641 161.018L124.427 161.144L120.503 136.111C120.503 136.111 118.511 134.538 119.577 132.957C120.643 131.375 118.543 129.439 118.543 129.439L119.485 109.896C119.485 109.896 118.442 106.52 119.669 106.082C120.895 105.643 119.83 102.74 119.83 102.74L120.012 98.9576L116.354 87.2267L100.334 83.3164Z" fill="#2F2E41"/>
<path d="M116.606 74.1089L118.372 68.8111L119.633 67.0451L120.138 61.9996C120.138 48.3766 117.099 50.6451 117.099 50.6451L115.345 45.8538L107.272 45.6016L102.1 50.521L97.8113 52.0346L96.1318 60.761L99.1988 70.0725L99.9556 75.118C98.5119 77.7833 98.634 76.5226 99.8295 78.5238L114.083 82.4341C119.129 84.2 119.129 79.659 118.117 78.5238C117.105 77.3885 116.606 74.1089 116.606 74.1089Z" fill="#3F3D56"/>
<path d="M110.265 43.9081C114.398 43.9081 117.749 40.5575 117.749 36.4243C117.749 32.2911 114.398 28.9404 110.265 28.9404C106.132 28.9404 102.781 32.2911 102.781 36.4243C102.781 40.5575 106.132 43.9081 110.265 43.9081Z" fill="#FFB6B6"/>
<path d="M120.256 46.413C120.327 46.532 120.37 46.6654 120.381 46.8032C120.393 46.941 120.374 47.0796 120.325 47.2089C120.275 47.3381 120.198 47.4546 120.097 47.5496C119.997 47.6446 119.876 47.7158 119.744 47.7577C118.74 48.0907 118.122 49.062 117.401 49.839C116.682 50.6135 115.524 51.2568 114.605 50.7295C113.69 50.2048 113.626 48.8652 112.86 48.1386C112.113 47.4323 110.872 47.518 109.994 48.0554L109.967 48.0715C109.816 48.1703 109.639 48.2225 109.458 48.2217C109.277 48.2209 109.1 48.1671 108.95 48.0669C108.799 47.9667 108.681 47.8246 108.61 47.6581C108.539 47.4916 108.519 47.308 108.552 47.13C108.859 45.4941 109.167 43.8583 109.474 42.2227C108.667 44.1679 107.494 45.9405 106.02 47.4449C105.614 47.9134 105.1 48.2754 104.522 48.4994C103.997 48.6659 103.487 48.1235 102.978 48.2219C104.244 47.1144 108.503 40.0153 107.741 35.2699C106.845 35.3709 105.95 35.4718 105.054 35.5727C104.957 35.1488 104.75 34.7581 104.454 34.44C104.49 34.8525 104.437 35.2679 104.3 35.6585C103.926 35.7014 103.55 35.7417 103.177 35.7846C102.657 35.8426 102.092 35.8931 101.646 35.6206C100.902 35.1665 100.879 34.0918 101.091 33.2442C101.711 30.7794 103.593 28.7183 105.897 27.6386C108.2 26.5613 108.881 28.9605 111.308 28.1936C116.101 26.6799 119.774 29.2683 121.069 34.0716C122.156 38.1005 121.366 42.3766 120.256 46.413Z" fill="#2F2E41"/>
<path d="M140.975 174.674H131.811L131.772 174.603C131.655 174.39 131.541 174.165 131.436 173.934C130.492 171.913 130.093 169.602 129.741 167.562L129.476 166.025C129.444 165.839 129.468 165.648 129.545 165.475C129.623 165.303 129.75 165.158 129.91 165.058C130.07 164.958 130.257 164.909 130.446 164.916C130.635 164.923 130.817 164.986 130.97 165.097C132.362 166.11 133.755 167.123 135.149 168.134C135.677 168.518 136.28 168.962 136.857 169.443C136.913 169.172 136.971 168.901 137.029 168.633C137.069 168.449 137.164 168.28 137.3 168.15C137.437 168.019 137.609 167.932 137.795 167.9C137.981 167.867 138.173 167.891 138.346 167.969C138.518 168.046 138.663 168.173 138.763 168.334L139.836 170.056C140.618 171.314 141.308 172.554 141.167 173.891C141.168 173.907 141.167 173.923 141.163 173.939C141.135 174.159 141.083 174.375 141.008 174.583L140.975 174.674Z" fill="#F0F0F0"/>
<path d="M150.173 174.872L63.0928 174.957C63.0058 174.957 62.9226 174.922 62.8613 174.86C62.8 174.799 62.7656 174.715 62.7656 174.628C62.7656 174.542 62.8 174.458 62.8613 174.397C62.9226 174.335 63.0058 174.3 63.0928 174.3L150.173 174.215C150.26 174.215 150.343 174.25 150.404 174.312C150.466 174.373 150.5 174.457 150.5 174.544C150.5 174.631 150.466 174.714 150.404 174.776C150.343 174.837 150.26 174.872 150.173 174.872Z" fill="#CACACA"/>
<path d="M71.1097 52.3021L61.5313 44.2132C61.2039 43.9361 60.9998 43.5404 60.9637 43.113C60.9277 42.6856 61.0627 42.2613 61.3391 41.9333L63.102 39.8457C63.3791 39.5183 63.7748 39.3142 64.2022 39.2782C64.6296 39.2422 65.0539 39.3771 65.3819 39.6535L74.9604 47.7425C75.2878 48.0196 75.4919 48.4153 75.5279 48.8427C75.5639 49.2701 75.4289 49.6944 75.1526 50.0224L73.3896 52.1099C73.1125 52.4373 72.7168 52.6415 72.2894 52.6775C71.862 52.7135 71.4377 52.5785 71.1097 52.3021Z" fill="#3F3D56"/>
<path d="M62.0339 42.1015C61.885 42.2783 61.8123 42.5069 61.8317 42.7373C61.8511 42.9676 61.9611 43.1808 62.1375 43.3301L71.716 51.4191C71.8927 51.568 72.1214 51.6408 72.3517 51.6213C72.582 51.6019 72.7952 51.4919 72.9446 51.3155L74.7075 49.228C74.8564 49.0512 74.9292 48.8226 74.9098 48.5922C74.8903 48.3619 74.7804 48.1487 74.6039 47.9994L65.0255 39.9104C64.8487 39.7615 64.6201 39.6887 64.3898 39.7082C64.1595 39.7276 63.9462 39.8376 63.7969 40.014L62.0339 42.1015Z" fill="white"/>
<path d="M67.6572 45.246C67.624 45.2925 67.5804 45.3306 67.5298 45.3574C67.4793 45.3841 67.4232 45.3987 67.3661 45.4L65.8611 45.4345C65.8127 45.4357 65.7647 45.4272 65.7196 45.4098C65.6745 45.3923 65.6333 45.3661 65.5983 45.3327C65.5633 45.2993 65.5353 45.2593 65.5157 45.2151C65.4962 45.1708 65.4856 45.1232 65.4845 45.0748C65.4834 45.0265 65.4918 44.9784 65.5093 44.9333C65.5267 44.8882 65.5529 44.847 65.5863 44.812C65.6197 44.777 65.6597 44.749 65.704 44.7295C65.7482 44.7099 65.7958 44.6993 65.8442 44.6982L66.8288 44.6756L65.8591 42.1171C65.8248 42.0258 65.8281 41.9247 65.8682 41.8358C65.9084 41.7469 65.9821 41.6776 66.0733 41.643C66.1645 41.6085 66.2657 41.6115 66.3547 41.6514C66.4436 41.6914 66.5131 41.765 66.5479 41.8561L67.702 44.9013C67.7229 44.9564 67.7302 45.0157 67.7235 45.0742C67.7167 45.1327 67.696 45.1887 67.6631 45.2376L67.6572 45.246Z" fill="#6C63FF"/>
<path d="M67.8504 45.8886C68.2134 45.9419 68.5603 46.0741 68.8666 46.276C69.173 46.4779 69.4313 46.7445 69.6235 47.0571C69.8157 47.3696 69.937 47.7205 69.9789 48.0849C70.0208 48.4494 69.9823 48.8187 69.866 49.1667L76.9312 54.6091L72.549 56.1171L66.5116 50.7177C65.94 50.4837 65.474 50.0481 65.202 49.4935C64.9301 48.9389 64.871 48.3038 65.036 47.7085C65.2011 47.1133 65.5787 46.5992 66.0974 46.2638C66.6161 45.9284 67.2398 45.7949 67.8504 45.8886Z" fill="#FFB6B6"/>
<path d="M104.633 48.5801L86.5442 59.7021C86.5442 59.7021 79.2509 57.0035 80.6762 55.7542C82.1016 54.505 77.564 53.6604 77.564 53.6604L72.5513 50.288L69.6426 53.6685C69.6426 53.6685 70.1726 59.1595 71.0744 58.2087C71.9762 57.2579 73.3241 59.8552 73.3241 59.8552C73.3241 59.8552 73.7224 62.7552 76.2895 62.0254C78.8566 61.2956 85.7449 68.9454 85.7449 68.9454L108.007 60.6424L104.633 48.5801Z" fill="#3F3D56"/>
<path d="M71.9806 37.5392C71.7709 37.5392 71.5641 37.4903 71.3765 37.3965C71.1889 37.3027 71.0258 37.1665 70.9 36.9987L67.587 32.5813C67.4806 32.4394 67.4032 32.2779 67.3591 32.1061C67.3151 31.9342 67.3054 31.7554 67.3305 31.5798C67.3556 31.4042 67.415 31.2353 67.5054 31.0826C67.5958 30.93 67.7153 30.7967 67.8572 30.6902C68.1438 30.4753 68.5041 30.383 68.8588 30.4337C69.0344 30.4588 69.2033 30.5182 69.3559 30.6086C69.5086 30.699 69.6419 30.8185 69.7483 30.9604L71.9158 33.8502L77.4827 25.5C77.6815 25.2019 77.9905 24.9949 78.3418 24.9247C78.6931 24.8544 79.0579 24.9266 79.356 25.1253C79.6541 25.324 79.8611 25.6331 79.9313 25.9844C80.0016 26.3357 79.9294 26.7005 79.7307 26.9986L73.1047 36.9376C72.9848 37.1174 72.8236 37.2658 72.6346 37.3704C72.4455 37.475 72.2341 37.5327 72.0182 37.5388C72.0056 37.539 71.9931 37.5392 71.9806 37.5392Z" fill="white"/>
</g>
<defs>
<clipPath id="clip0_100_5940">
<rect width="150" height="174.957" fill="white" transform="translate(0.5)"/>
</clipPath>
</defs>
</svg>
