<svg width="156" height="40" viewBox="0 0 156 40" fill="none" xmlns="http://www.w3.org/2000/svg">
<path d="M14.896 16.2859C14.768 16.5099 14.6293 16.6752 14.48 16.7819C14.3413 16.8779 14.1653 16.9259 13.952 16.9259C13.728 16.9259 13.4827 16.8459 13.216 16.6859C12.96 16.5152 12.6507 16.3285 12.288 16.1259C11.9253 15.9232 11.4987 15.7419 11.008 15.5819C10.528 15.4112 9.95733 15.3259 9.296 15.3259C8.69867 15.3259 8.176 15.4005 7.728 15.5499C7.28 15.6885 6.90133 15.8859 6.592 16.1419C6.29333 16.3979 6.06933 16.7072 5.92 17.0699C5.77067 17.4219 5.696 17.8112 5.696 18.2379C5.696 18.7819 5.84533 19.2352 6.144 19.5979C6.45333 19.9605 6.85867 20.2699 7.36 20.5259C7.86133 20.7819 8.432 21.0112 9.072 21.2139C9.712 21.4165 10.368 21.6352 11.04 21.8699C11.712 22.0939 12.368 22.3605 13.008 22.6699C13.648 22.9685 14.2187 23.3525 14.72 23.8219C15.2213 24.2805 15.6213 24.8459 15.92 25.5179C16.2293 26.1899 16.384 27.0059 16.384 27.9659C16.384 29.0112 16.2027 29.9925 15.84 30.9099C15.488 31.8165 14.9653 32.6112 14.272 33.2939C13.5893 33.9659 12.752 34.4992 11.76 34.8939C10.768 35.2779 9.632 35.4699 8.352 35.4699C7.616 35.4699 6.89067 35.3952 6.176 35.2459C5.46133 35.1072 4.77333 34.9045 4.112 34.6379C3.46133 34.3712 2.848 34.0512 2.272 33.6779C1.696 33.3045 1.184 32.8885 0.736 32.4299L2 30.3659C2.10667 30.2165 2.24533 30.0939 2.416 29.9979C2.58667 29.8912 2.768 29.8379 2.96 29.8379C3.22667 29.8379 3.51467 29.9499 3.824 30.1739C4.13333 30.3872 4.50133 30.6272 4.928 30.8939C5.35467 31.1605 5.85067 31.4059 6.416 31.6299C6.992 31.8432 7.68 31.9499 8.48 31.9499C9.70667 31.9499 10.656 31.6619 11.328 31.0859C12 30.4992 12.336 29.6619 12.336 28.5739C12.336 27.9659 12.1813 27.4699 11.872 27.0859C11.5733 26.7019 11.1733 26.3819 10.672 26.1259C10.1707 25.8592 9.6 25.6352 8.96 25.4539C8.32 25.2725 7.66933 25.0752 7.008 24.8619C6.34667 24.6485 5.696 24.3925 5.056 24.0939C4.416 23.7952 3.84533 23.4059 3.344 22.9259C2.84267 22.4459 2.43733 21.8485 2.128 21.1339C1.82933 20.4085 1.68 19.5179 1.68 18.4619C1.68 17.6192 1.84533 16.7979 2.176 15.9979C2.51733 15.1979 3.008 14.4885 3.648 13.8699C4.288 13.2512 5.07733 12.7552 6.016 12.3819C6.95467 12.0085 8.032 11.8219 9.248 11.8219C10.6133 11.8219 11.872 12.0352 13.024 12.4619C14.176 12.8885 15.1573 13.4859 15.968 14.2539L14.896 16.2859ZM18.882 35.2139V18.7979H21.298C21.81 18.7979 22.146 19.0379 22.306 19.5179L22.562 20.7339C22.85 20.4139 23.1487 20.1205 23.458 19.8539C23.778 19.5872 24.114 19.3579 24.466 19.1659C24.8287 18.9739 25.2127 18.8245 25.618 18.7179C26.034 18.6005 26.4873 18.5419 26.978 18.5419C28.0127 18.5419 28.8607 18.8245 29.522 19.3899C30.194 19.9445 30.6953 20.6859 31.026 21.6139C31.282 21.0699 31.602 20.6059 31.986 20.2219C32.37 19.8272 32.7913 19.5072 33.25 19.2619C33.7087 19.0165 34.194 18.8352 34.706 18.7179C35.2287 18.6005 35.7513 18.5419 36.274 18.5419C37.1807 18.5419 37.986 18.6805 38.69 18.9579C39.394 19.2352 39.986 19.6405 40.466 20.1739C40.946 20.7072 41.3087 21.3579 41.554 22.1259C41.81 22.8939 41.938 23.7739 41.938 24.7659V35.2139H37.986V24.7659C37.986 23.7205 37.7567 22.9365 37.298 22.4139C36.8393 21.8805 36.1673 21.6139 35.282 21.6139C34.8767 21.6139 34.498 21.6832 34.146 21.8219C33.8047 21.9605 33.5007 22.1632 33.234 22.4299C32.978 22.6859 32.7753 23.0112 32.626 23.4059C32.4767 23.8005 32.402 24.2539 32.402 24.7659V35.2139H28.434V24.7659C28.434 23.6672 28.21 22.8672 27.762 22.3659C27.3247 21.8645 26.6793 21.6139 25.826 21.6139C25.25 21.6139 24.7113 21.7579 24.21 22.0459C23.7193 22.3232 23.2607 22.7072 22.834 23.1979V35.2139H18.882ZM54.0465 28.2059C52.9052 28.2592 51.9452 28.3605 51.1665 28.5099C50.3878 28.6485 49.7638 28.8299 49.2945 29.0539C48.8252 29.2779 48.4892 29.5392 48.2865 29.8379C48.0838 30.1365 47.9825 30.4619 47.9825 30.8139C47.9825 31.5072 48.1852 32.0032 48.5905 32.3019C49.0065 32.6005 49.5452 32.7499 50.2065 32.7499C51.0172 32.7499 51.7158 32.6059 52.3025 32.3179C52.8998 32.0192 53.4812 31.5712 54.0465 30.9739V28.2059ZM44.9905 21.0859C46.8785 19.3579 49.1505 18.4939 51.8065 18.4939C52.7665 18.4939 53.6252 18.6539 54.3825 18.9739C55.1398 19.2832 55.7798 19.7205 56.3025 20.2859C56.8252 20.8405 57.2198 21.5072 57.4865 22.2859C57.7638 23.0645 57.9025 23.9179 57.9025 24.8459V35.2139H56.1105C55.7372 35.2139 55.4492 35.1605 55.2465 35.0539C55.0438 34.9365 54.8838 34.7072 54.7665 34.3659L54.4145 33.1819C53.9985 33.5552 53.5932 33.8859 53.1985 34.1739C52.8038 34.4512 52.3932 34.6859 51.9665 34.8779C51.5398 35.0699 51.0812 35.2139 50.5905 35.3099C50.1105 35.4165 49.5772 35.4699 48.9905 35.4699C48.2972 35.4699 47.6572 35.3792 47.0705 35.1979C46.4838 35.0059 45.9772 34.7232 45.5505 34.3499C45.1238 33.9765 44.7932 33.5125 44.5585 32.9579C44.3238 32.4032 44.2065 31.7579 44.2065 31.0219C44.2065 30.6059 44.2758 30.1952 44.4145 29.7899C44.5532 29.3739 44.7772 28.9792 45.0865 28.6059C45.4065 28.2325 45.8172 27.8805 46.3185 27.5499C46.8198 27.2192 47.4332 26.9312 48.1585 26.6859C48.8945 26.4405 49.7478 26.2432 50.7185 26.0939C51.6892 25.9339 52.7985 25.8379 54.0465 25.8059V24.8459C54.0465 23.7472 53.8118 22.9365 53.3425 22.4139C52.8732 21.8805 52.1958 21.6139 51.3105 21.6139C50.6705 21.6139 50.1372 21.6885 49.7105 21.8379C49.2945 21.9872 48.9265 22.1579 48.6065 22.3499C48.2865 22.5312 47.9932 22.6965 47.7265 22.8459C47.4705 22.9952 47.1825 23.0699 46.8625 23.0699C46.5852 23.0699 46.3505 23.0005 46.1585 22.8619C45.9665 22.7125 45.8118 22.5419 45.6945 22.3499L44.9905 21.0859ZM65.0325 21.6459C65.5445 20.6645 66.1525 19.8965 66.8565 19.3419C67.5605 18.7765 68.3925 18.4939 69.3525 18.4939C70.1098 18.4939 70.7178 18.6592 71.1765 18.9899L70.9205 21.9499C70.8672 22.1419 70.7872 22.2805 70.6805 22.3659C70.5845 22.4405 70.4512 22.4779 70.2805 22.4779C70.1205 22.4779 69.8805 22.4512 69.5605 22.3979C69.2512 22.3445 68.9472 22.3179 68.6485 22.3179C68.2112 22.3179 67.8218 22.3819 67.4805 22.5099C67.1392 22.6379 66.8298 22.8245 66.5525 23.0699C66.2858 23.3045 66.0458 23.5925 65.8325 23.9339C65.6298 24.2752 65.4378 24.6645 65.2565 25.1019V35.2139H61.3045V18.7979H63.6245C64.0298 18.7979 64.3125 18.8725 64.4725 19.0219C64.6325 19.1605 64.7392 19.4165 64.7925 19.7899L65.0325 21.6459ZM78.394 35.4699C76.9647 35.4699 75.866 35.0699 75.098 34.2699C74.3407 33.4592 73.962 32.3445 73.962 30.9259V21.7579H72.282C72.0687 21.7579 71.8873 21.6885 71.738 21.5499C71.5887 21.4112 71.514 21.2032 71.514 20.9259V19.3579L74.154 18.9259L74.986 14.4459C75.0393 14.2325 75.1407 14.0672 75.29 13.9499C75.4393 13.8325 75.6313 13.7739 75.866 13.7739H77.914V18.9419H82.298V21.7579H77.914V30.6539C77.914 31.1659 78.0367 31.5659 78.282 31.8539C78.538 32.1419 78.8847 32.2859 79.322 32.2859C79.5673 32.2859 79.77 32.2592 79.93 32.2059C80.1007 32.1419 80.2447 32.0779 80.362 32.0139C80.49 31.9499 80.602 31.8912 80.698 31.8379C80.794 31.7739 80.89 31.7419 80.986 31.7419C81.1033 31.7419 81.1993 31.7739 81.274 31.8379C81.3487 31.8912 81.4287 31.9765 81.514 32.0939L82.698 34.0139C82.122 34.4939 81.4607 34.8565 80.714 35.1019C79.9673 35.3472 79.194 35.4699 78.394 35.4699ZM95.6335 23.6459C95.6335 24.9152 95.8042 26.0565 96.1455 27.0699C96.4868 28.0725 96.9722 28.9259 97.6015 29.6299C98.2415 30.3232 99.0095 30.8565 99.9055 31.2299C100.812 31.6032 101.831 31.7899 102.962 31.7899C104.092 31.7899 105.106 31.6032 106.002 31.2299C106.908 30.8565 107.676 30.3232 108.306 29.6299C108.935 28.9259 109.42 28.0725 109.762 27.0699C110.103 26.0565 110.274 24.9152 110.274 23.6459C110.274 22.3765 110.103 21.2405 109.762 20.2379C109.42 19.2245 108.935 18.3659 108.306 17.6619C107.676 16.9579 106.908 16.4192 106.002 16.0459C105.106 15.6725 104.092 15.4859 102.962 15.4859C101.831 15.4859 100.812 15.6725 99.9055 16.0459C99.0095 16.4192 98.2415 16.9579 97.6015 17.6619C96.9722 18.3659 96.4868 19.2245 96.1455 20.2379C95.8042 21.2405 95.6335 22.3765 95.6335 23.6459ZM115.874 39.7419H112.322C111.81 39.7419 111.346 39.6725 110.93 39.5339C110.524 39.3952 110.151 39.1392 109.81 38.7659L106.418 35.0219C105.874 35.1712 105.314 35.2832 104.738 35.3579C104.172 35.4325 103.58 35.4699 102.962 35.4699C101.212 35.4699 99.6175 35.1765 98.1775 34.5899C96.7375 33.9925 95.5002 33.1659 94.4655 32.1099C93.4415 31.0539 92.6468 29.8059 92.0815 28.3659C91.5162 26.9152 91.2335 25.3419 91.2335 23.6459C91.2335 21.9499 91.5162 20.3819 92.0815 18.9419C92.6468 17.4912 93.4415 16.2379 94.4655 15.1819C95.5002 14.1259 96.7375 13.3045 98.1775 12.7179C99.6175 12.1205 101.212 11.8219 102.962 11.8219C104.135 11.8219 105.239 11.9605 106.274 12.2379C107.308 12.5045 108.258 12.8885 109.122 13.3899C109.986 13.8805 110.759 14.4832 111.442 15.1979C112.135 15.9019 112.722 16.6912 113.202 17.5659C113.682 18.4405 114.044 19.3899 114.29 20.4139C114.546 21.4379 114.674 22.5152 114.674 23.6459C114.674 24.6805 114.567 25.6725 114.354 26.6219C114.14 27.5605 113.831 28.4405 113.426 29.2619C113.031 30.0832 112.546 30.8405 111.97 31.5339C111.394 32.2165 110.738 32.8192 110.002 33.3419L115.874 39.7419ZM131.419 18.7979V35.2139H129.003C128.48 35.2139 128.149 34.9739 128.011 34.4939L127.739 33.1819C127.067 33.8645 126.325 34.4192 125.515 34.8459C124.704 35.2619 123.749 35.4699 122.651 35.4699C121.755 35.4699 120.96 35.3205 120.267 35.0219C119.584 34.7125 119.008 34.2805 118.539 33.7259C118.069 33.1712 117.712 32.5152 117.467 31.7579C117.232 30.9899 117.115 30.1472 117.115 29.2299V18.7979H121.067V29.2299C121.067 30.2325 121.296 31.0112 121.755 31.5659C122.224 32.1099 122.923 32.3819 123.851 32.3819C124.533 32.3819 125.173 32.2325 125.771 31.9339C126.368 31.6245 126.933 31.2032 127.467 30.6699V18.7979H131.419ZM139.113 18.7979V35.2139H135.145V18.7979H139.113ZM139.657 14.0139C139.657 14.3552 139.588 14.6752 139.449 14.9739C139.31 15.2725 139.124 15.5339 138.889 15.7579C138.665 15.9819 138.398 16.1632 138.089 16.3019C137.78 16.4299 137.449 16.4939 137.097 16.4939C136.756 16.4939 136.43 16.4299 136.121 16.3019C135.822 16.1632 135.561 15.9819 135.337 15.7579C135.113 15.5339 134.932 15.2725 134.793 14.9739C134.665 14.6752 134.601 14.3552 134.601 14.0139C134.601 13.6619 134.665 13.3312 134.793 13.0219C134.932 12.7125 135.113 12.4459 135.337 12.2219C135.561 11.9979 135.822 11.8219 136.121 11.6939C136.43 11.5552 136.756 11.4859 137.097 11.4859C137.449 11.4859 137.78 11.5552 138.089 11.6939C138.398 11.8219 138.665 11.9979 138.889 12.2219C139.124 12.4459 139.31 12.7125 139.449 13.0219C139.588 13.3312 139.657 13.6619 139.657 14.0139ZM154.614 20.4299C154.614 20.7072 154.566 20.9792 154.47 21.2459C154.374 21.5125 154.246 21.7312 154.086 21.9019L146.294 32.1739H154.374V35.2139H141.702V33.5659C141.702 33.3845 141.745 33.1712 141.83 32.9259C141.915 32.6699 142.043 32.4299 142.214 32.2059L150.086 21.8219H142.166V18.7979H154.614V20.4299Z" fill="#2F2E41"/>
<g clip-path="url(#clip0_94_7856)">
<path d="M132.81 12.5315L132.75 12.5833L132.096 11.8282L135.527 11.6229L137.302 8.68136L138.557 11.8795L141.903 12.6593L141.354 13.111L141.297 13.0443L138.106 12.3132L137.192 9.88453L135.738 12.2797L132.81 12.5315Z" fill="#3538CD"/>
<path d="M137.192 9.88441L138.106 12.3131L141.297 13.0442L141.354 13.1109L139.25 14.8413L139.542 18.2652L136.647 16.4157L133.482 17.752L134.347 14.4258L132.75 12.5832L132.81 12.5313L135.738 12.2795L137.192 9.88441Z" fill="#6C63FF"/>
<path d="M141.795 7.95043C142.175 7.43787 142.02 6.67923 141.448 6.25595C140.877 5.83268 140.106 5.90506 139.726 6.41763C139.347 6.93019 139.502 7.68883 140.073 8.11211C140.645 8.53538 141.416 8.463 141.795 7.95043Z" fill="white"/>
<path d="M135.207 4.03021L135.313 5.65511L136.713 6.49036L135.2 7.0928L134.84 8.68346L133.799 7.43009L132.175 7.58068L133.044 6.20202L132.401 4.70529L133.981 5.10447L135.207 4.03021Z" fill="#6C63FF"/>
<path d="M129.704 12.6758C129.537 12.9307 129.477 13.2417 129.539 13.5405C129.6 13.8392 129.778 14.1014 130.032 14.2694C129.797 14.0748 129.493 13.9818 129.189 14.0107C128.885 14.0396 128.604 14.188 128.409 14.4234C128.577 14.1679 128.637 13.8563 128.575 13.5569C128.513 13.2575 128.335 12.9948 128.08 12.8264C128.316 13.0209 128.619 13.1143 128.923 13.0861C129.228 13.0579 129.508 12.9104 129.704 12.6758Z" fill="white"/>
<path d="M137.088 8.55103L135.38 11.3809L132.082 11.5788C132.035 11.5817 131.99 11.5975 131.952 11.6244C131.914 11.6514 131.885 11.6884 131.866 11.7314C131.848 11.7744 131.843 11.8216 131.85 11.8676C131.857 11.9137 131.877 11.9568 131.908 11.992L134.071 14.4901L133.24 17.6894C133.228 17.7345 133.229 17.782 133.243 17.8265C133.257 17.871 133.283 17.9108 133.318 17.9413C133.353 17.9718 133.396 17.9918 133.443 17.9991C133.489 18.0064 133.536 18.0007 133.579 17.9826L136.623 16.6963L139.408 18.4758C139.447 18.501 139.493 18.5146 139.539 18.5151C139.586 18.5157 139.632 18.5032 139.672 18.4791C139.712 18.455 139.744 18.4202 139.765 18.3786C139.786 18.337 139.795 18.2904 139.792 18.2439L139.51 14.9507L142.063 12.8516C142.099 12.8219 142.126 12.7828 142.141 12.7386C142.156 12.6944 142.158 12.6469 142.148 12.6015C142.137 12.5561 142.114 12.5145 142.081 12.4816C142.048 12.4486 142.006 12.4255 141.961 12.415L138.743 11.6659L137.537 8.59017C137.52 8.54667 137.491 8.50881 137.453 8.48087C137.416 8.45293 137.371 8.43603 137.325 8.43209C137.278 8.42816 137.232 8.43734 137.19 8.4586C137.148 8.47985 137.114 8.51234 137.089 8.55236L137.088 8.55103ZM138.325 11.9711C138.34 12.0089 138.364 12.0424 138.394 12.0689C138.425 12.0954 138.462 12.1141 138.501 12.1233L141.354 12.7873L139.092 14.6487C139.061 14.6744 139.036 14.7073 139.021 14.7444C139.005 14.7816 138.999 14.822 139.002 14.8622L139.251 17.7823L136.782 16.2049C136.748 16.183 136.709 16.1698 136.669 16.1664C136.628 16.163 136.588 16.1695 136.55 16.1852L133.851 17.3249L134.588 14.4892C134.598 14.45 134.599 14.4089 134.59 14.3695C134.58 14.3301 134.562 14.2936 134.535 14.263L132.617 12.0482L135.542 11.873C135.582 11.8707 135.622 11.8586 135.656 11.8376C135.691 11.8167 135.72 11.7875 135.741 11.7527L137.255 9.2441L138.325 11.9711ZM135.455 4.01394C135.452 3.9674 135.436 3.92264 135.409 3.88472C135.381 3.84681 135.344 3.81724 135.301 3.79937C135.258 3.78151 135.211 3.77604 135.165 3.78361C135.119 3.79117 135.076 3.81146 135.041 3.84218L133.914 4.8299L132.463 4.46227C132.418 4.45081 132.37 4.45223 132.326 4.46637C132.281 4.48051 132.242 4.50679 132.211 4.54226C132.181 4.57773 132.161 4.62096 132.154 4.66707C132.147 4.71318 132.153 4.76033 132.172 4.80319L132.762 6.17923L131.964 7.44627C131.939 7.48572 131.925 7.53135 131.925 7.57799C131.925 7.62462 131.937 7.67041 131.962 7.71018C131.986 7.74995 132.021 7.78211 132.063 7.80303C132.105 7.82394 132.151 7.83278 132.198 7.82854L133.69 7.69168L134.648 8.84294C134.678 8.87875 134.717 8.9055 134.761 8.92016C134.806 8.93482 134.853 8.9368 134.899 8.92589C134.944 8.91497 134.985 8.89159 135.018 8.85839C135.051 8.82519 135.074 8.7835 135.084 8.73801L135.415 7.27738L136.806 6.72136C136.849 6.70408 136.887 6.675 136.915 6.63741C136.942 6.59982 136.959 6.55522 136.963 6.50868C136.966 6.46213 136.957 6.41549 136.935 6.37403C136.914 6.33258 136.881 6.29798 136.841 6.27414L135.554 5.50758L135.455 4.01394ZM135.064 5.67233C135.066 5.71279 135.079 5.752 135.1 5.78659C135.121 5.82118 135.15 5.8501 135.185 5.87087L136.15 6.44513L135.107 6.86169C135.069 6.87674 135.036 6.90073 135.01 6.93158C134.983 6.96243 134.965 6.99923 134.956 7.03879L134.709 8.13257L133.991 7.27169C133.965 7.24069 133.932 7.21643 133.895 7.20097C133.857 7.18552 133.817 7.17934 133.776 7.18296L132.658 7.28546L133.254 6.33383C133.276 6.29956 133.289 6.26055 133.292 6.22016C133.295 6.17977 133.289 6.13921 133.273 6.10196L132.83 5.07081L133.918 5.34764C133.957 5.35772 133.999 5.35808 134.038 5.34868C134.077 5.33928 134.114 5.32041 134.145 5.2937L134.989 4.55335L135.064 5.67233ZM141.247 6.10692C141.079 6.30233 140.841 6.4235 140.584 6.44414C140.326 6.46477 140.072 6.3832 139.874 6.21713C139.821 6.17766 139.754 6.16097 139.689 6.17073C139.623 6.1805 139.564 6.21591 139.525 6.26919C139.485 6.32247 139.469 6.38924 139.478 6.45482C139.488 6.52041 139.524 6.57942 139.577 6.61889C139.793 6.75891 139.945 6.9785 140.001 7.23005C140.056 7.4816 140.01 7.74484 139.873 7.96267C139.833 8.01595 139.816 8.08272 139.826 8.1483C139.836 8.21388 139.871 8.2729 139.925 8.31237C139.978 8.35184 140.045 8.36852 140.11 8.35876C140.176 8.34899 140.235 8.31358 140.274 8.2603C140.443 8.06499 140.681 7.94387 140.938 7.92321C141.195 7.90254 141.45 7.98398 141.647 8.14989C141.701 8.18936 141.767 8.20605 141.833 8.19628C141.898 8.18652 141.957 8.1511 141.997 8.09782C142.036 8.04455 142.053 7.97777 142.043 7.91219C142.034 7.84661 141.998 7.78759 141.945 7.74813C141.729 7.60816 141.576 7.3886 141.521 7.13706C141.465 6.88552 141.511 6.62227 141.649 6.4044C141.688 6.35112 141.705 6.28435 141.695 6.21877C141.685 6.15319 141.65 6.09417 141.597 6.0547C141.543 6.01523 141.477 5.99855 141.411 6.00831C141.346 6.01807 141.287 6.05349 141.247 6.10677L141.247 6.10692ZM141.093 7.42835C140.902 7.4141 140.711 7.43663 140.529 7.49473C140.531 7.30448 140.497 7.11558 140.428 6.93822C140.619 6.95263 140.81 6.93016 140.992 6.87204C140.989 7.06225 141.024 7.25112 141.093 7.42835ZM129.883 14.4708C129.936 14.5102 130.003 14.5269 130.068 14.5172C130.134 14.5074 130.193 14.472 130.232 14.4187C130.272 14.3654 130.289 14.2987 130.279 14.2331C130.269 14.1675 130.234 14.1085 130.18 14.069C129.98 13.9395 129.838 13.7361 129.787 13.503C129.735 13.2698 129.777 13.0258 129.905 12.8236C129.944 12.7703 129.961 12.7036 129.951 12.638C129.941 12.5724 129.906 12.5134 129.852 12.4739C129.799 12.4345 129.732 12.4178 129.667 12.4275C129.601 12.4373 129.542 12.4727 129.503 12.526C129.347 12.707 129.125 12.819 128.887 12.8379C128.649 12.8567 128.412 12.7809 128.23 12.6267C128.176 12.5872 128.11 12.5706 128.044 12.5803C127.978 12.5901 127.919 12.6255 127.88 12.6788C127.841 12.7321 127.824 12.7988 127.834 12.8644C127.843 12.93 127.879 12.989 127.932 13.0285C128.133 13.1581 128.274 13.3616 128.326 13.5948C128.377 13.828 128.335 14.0721 128.208 14.2743C128.168 14.3275 128.151 14.3943 128.161 14.4599C128.171 14.5255 128.206 14.5845 128.26 14.624C128.313 14.6634 128.38 14.6801 128.445 14.6704C128.511 14.6606 128.57 14.6252 128.609 14.5719C128.766 14.3909 128.987 14.2787 129.225 14.2598C129.464 14.2408 129.7 14.3167 129.883 14.4708ZM128.765 13.334C128.932 13.3436 129.1 13.3234 129.26 13.2743C129.261 13.4411 129.291 13.6064 129.349 13.7627C129.181 13.7528 129.014 13.7727 128.854 13.8213C128.853 13.6549 128.823 13.49 128.765 13.334Z" fill="#3538CD"/>
</g>
<defs>
<clipPath id="clip0_94_7856">
<rect width="16" height="16" fill="white" transform="translate(125 12.8564) rotate(-53.4685)"/>
</clipPath>
</defs>
</svg>
